<?xml version="1.0" standalone="no"?>
<!DOCTYPE svg PUBLIC "-//W3C//DTD SVG 20010904//EN"
 "http://www.w3.org/TR/2001/REC-SVG-20010904/DTD/svg10.dtd">
<svg version="1.0" xmlns="http://www.w3.org/2000/svg"
 width="225.000000pt" height="225.000000pt" viewBox="0 0 225.000000 225.000000"
 preserveAspectRatio="xMidYMid meet">
<metadata>
Created by potrace 1.14, written by Peter Selinger 2001-2017
</metadata>
<g transform="translate(0.000000,225.000000) scale(0.100000,-0.100000)"
fill="#000000" stroke="none">
<path d="M2120 2013 c0 -5 -12 -14 -27 -21 -52 -23 -83 -43 -83 -53 0 -5 -7
-9 -15 -9 -17 0 -20 -16 -5 -25 6 -3 13 1 16 9 3 9 10 16 15 16 17 0 119 79
109 85 -5 3 -10 2 -10 -2z"/>
<path d="M1908 1861 c-27 -25 -48 -53 -48 -61 0 -13 -1 -13 -10 0 -8 13 -11
12 -25 -5 -15 -18 -16 -18 -11 -1 5 13 2 17 -9 12 -8 -3 -15 -1 -15 4 0 6 -5
10 -11 10 -5 0 -7 -5 -3 -12 5 -7 3 -8 -6 -3 -10 6 -9 11 4 21 10 7 15 17 11
23 -3 7 0 8 9 5 9 -3 16 -1 16 5 0 18 -25 13 -45 -9 -10 -11 -20 -18 -23 -16
-2 3 -17 -9 -33 -25 -16 -16 -29 -27 -29 -23 0 3 -7 1 -15 -6 -9 -7 -18 -10
-22 -6 -3 3 -2 6 3 6 5 0 10 9 11 19 2 20 1 20 -34 0 -19 -11 -42 -27 -50 -35
-8 -7 -18 -14 -22 -14 -4 0 -25 -17 -46 -38 -34 -32 -69 -55 -78 -50 -1 1 -12
-4 -24 -10 -19 -11 -24 -9 -34 10 -6 13 -9 20 -5 17 6 -6 86 62 86 74 0 3 -9
3 -20 0 -11 -3 -17 -9 -14 -14 3 -5 -2 -9 -10 -9 -9 0 -16 -4 -16 -10 0 -5 -6
-10 -14 -10 -8 0 -17 -7 -20 -16 -3 -8 -10 -13 -15 -10 -5 4 -11 3 -13 -2 -7
-18 -78 -63 -95 -60 -19 3 -113 -51 -113 -64 0 -5 -5 -8 -11 -8 -7 0 -20 -10
-30 -22 -11 -11 -19 -18 -19 -15 0 4 -35 -29 -79 -72 -43 -44 -86 -81 -96 -83
-27 -5 -26 28 1 42 12 7 25 19 28 27 7 18 -42 -7 -81 -42 -97 -87 -103 -95
-106 -147 -1 -9 -4 -16 -7 -15 -3 1 -18 -10 -33 -26 -28 -27 -44 -36 -32 -17
3 6 2 10 -3 10 -16 0 -22 -13 -12 -25 8 -9 6 -14 -4 -18 -10 -4 -13 -1 -10 7
3 8 1 17 -5 21 -6 3 -11 1 -11 -5 0 -6 -4 -9 -9 -5 -13 7 -63 -43 -56 -56 4
-5 1 -9 -4 -9 -6 0 -11 -8 -11 -17 0 -15 -2 -16 -10 -3 -5 8 -10 10 -10 4 0
-10 -41 -24 -82 -28 -3 -1 -10 -4 -14 -9 -4 -4 -15 -7 -23 -7 -22 0 -88 -55
-96 -80 -3 -10 -14 -21 -23 -24 -9 -3 -23 -19 -30 -34 -12 -28 -99 -122 -113
-122 -4 0 -18 -21 -30 -47 -34 -70 -35 -194 -2 -283 13 -36 28 -66 33 -68 6
-2 10 -9 10 -16 0 -14 79 -96 91 -96 4 0 14 -6 21 -13 7 -8 38 -23 68 -34 109
-40 296 -18 356 42 9 8 31 27 50 42 19 14 32 28 30 31 -7 6 20 32 33 32 6 0
11 5 11 10 0 6 7 10 17 10 9 0 13 3 10 6 -9 9 34 84 47 84 6 1 -2 8 -18 16
-30 17 -26 31 13 39 13 2 29 9 37 16 8 6 14 8 14 4 0 -4 7 -2 15 5 8 7 15 10
15 6 0 -3 9 2 20 11 22 20 27 72 8 91 -9 9 -9 12 0 12 7 0 12 7 12 15 0 8 7
15 15 15 36 0 77 33 96 75 10 23 36 58 57 76 20 18 36 37 34 41 -1 5 10 14 25
21 25 10 62 45 89 81 10 13 16 34 17 53 0 7 7 15 16 18 10 4 12 9 5 13 -14 9
26 102 43 102 12 0 17 13 14 33 -1 5 3 6 9 2 5 -3 18 -1 27 4 10 6 13 11 6 11
-6 0 -11 9 -10 20 1 10 3 17 5 15 8 -7 41 29 35 39 -3 6 -3 8 2 4 11 -11 36
12 28 25 -3 6 -1 7 5 3 7 -4 22 3 34 14 13 12 36 31 52 43 15 12 35 29 44 39
9 10 25 14 39 12 17 -3 22 -1 17 7 -4 8 -3 9 4 5 6 -4 8 -14 5 -23 -5 -12 -3
-14 7 -8 8 5 11 4 7 -2 -4 -6 0 -14 9 -17 25 -9 27 -7 13 11 -13 15 -12 15 10
3 22 -11 23 -11 17 6 -5 11 -9 24 -10 29 -1 6 -5 17 -10 25 -7 12 -7 13 5 2 8
-7 15 -17 15 -22 1 -6 2 -14 3 -20 2 -16 19 -12 41 10 11 11 20 18 20 15 0 -2
12 7 27 21 14 13 28 22 31 20 2 -3 17 8 32 24 15 16 31 26 34 23 3 -3 8 2 12
11 3 9 11 16 18 16 17 0 48 39 40 51 -4 7 -10 6 -19 -1 -7 -6 -16 -7 -18 -3
-3 5 -20 10 -37 11 -17 1 -29 -1 -26 -6 2 -4 -4 -8 -14 -8 -19 0 -19 1 -2 30
9 16 20 28 24 28 4 -1 20 11 36 26 16 15 40 36 53 47 39 33 35 48 -7 30 -25
-10 -41 -12 -54 -5 -13 7 -21 5 -30 -5 -9 -10 -17 -12 -30 -5 -9 5 -20 7 -22
4 -3 -2 -5 6 -4 18 1 15 18 34 53 58 51 34 65 51 41 49 -7 -1 -34 -22 -60 -48z
m-98 -345 c0 -2 -7 -7 -16 -10 -8 -3 -12 -2 -9 4 6 10 25 14 25 6z m-85 -34
c-3 -3 -11 0 -18 7 -9 10 -8 11 6 5 10 -3 15 -9 12 -12z m80 -20 c-3 -3 -11 0
-18 7 -9 10 -8 11 6 5 10 -3 15 -9 12 -12z m-1115 -297 c-7 -8 -17 -15 -23
-15 -6 0 -2 7 9 15 25 19 30 19 14 0z"/>
<path d="M1693 1405 c-4 -13 -8 -13 -21 -3 -11 9 -14 9 -9 1 4 -6 1 -15 -6
-20 -22 -13 -119 -124 -113 -130 3 -3 12 1 20 8 9 8 38 30 65 49 27 19 48 37
45 39 -2 2 5 11 16 18 11 8 18 19 15 24 -3 5 1 6 9 3 9 -3 16 -2 16 4 0 17
-30 23 -37 7z"/>
<path d="M1820 1379 c0 -5 5 -7 10 -4 6 3 10 8 10 11 0 2 -4 4 -10 4 -5 0 -10
-5 -10 -11z"/>
<path d="M1756 1334 c-28 -24 -47 -47 -43 -50 4 -4 7 -2 7 4 0 7 6 12 13 12
16 1 79 59 75 69 -2 5 -25 -11 -52 -35z"/>
<path d="M505 1170 c-10 -11 -14 -20 -9 -20 5 0 15 9 22 20 7 11 11 20 9 20
-2 0 -12 -9 -22 -20z"/>
<path d="M1558 1153 c-24 -21 -62 -57 -86 -80 -24 -24 -45 -43 -47 -43 -8 0
-142 -139 -138 -143 6 -6 27 10 105 82 32 30 68 61 79 69 20 14 93 86 133 131
31 35 -1 24 -46 -16z"/>
<path d="M1489 1001 c-35 -28 -120 -113 -116 -117 2 -2 17 8 34 24 17 15 47
40 67 57 20 16 38 35 40 42 7 17 3 16 -25 -6z"/>
<path d="M1350 859 c0 -5 5 -7 10 -4 6 3 10 8 10 11 0 2 -4 4 -10 4 -5 0 -10
-5 -10 -11z"/>
<path d="M1255 820 c3 -5 2 -10 -4 -10 -6 0 -34 -23 -63 -51 -29 -28 -43 -46
-30 -39 13 6 40 27 60 46 20 19 39 34 43 34 4 0 9 7 13 15 3 9 0 15 -10 15 -8
0 -12 -4 -9 -10z"/>
<path d="M1120 690 c-8 -5 -10 -10 -5 -10 6 0 17 5 25 10 8 5 11 10 5 10 -5 0
-17 -5 -25 -10z"/>
</g>
</svg>
